<svg xmlns="http://www.w3.org/2000/svg" xmlns:xlink="http://www.w3.org/1999/xlink" width="140" height="120" viewBox="0 0 140 120">
  <defs>
    <clipPath id="clip-music-default">
      <rect width="140" height="120"/>
    </clipPath>
  </defs>
  <g id="music-default" clip-path="url(#clip-music-default)">
    <g id="Raggruppa_3" data-name="Raggruppa 3" transform="translate(-115 -44)">
      <g id="default-image" transform="translate(115 44)">
        <g id="Raggruppa_2" data-name="Raggruppa 2" transform="translate(0 0)">
          <g id="block-image.8a4a14d5" transform="translate(0 0)">
            <rect id="Rettangolo_1" data-name="Rettangolo 1" width="140" height="120" rx="3" fill="rgba(255,255,255,0.5)"/>
            <rect id="Rettangolo_2" data-name="Rettangolo 2" width="96" height="96" rx="3" transform="translate(22 13)" fill="#93acc8"/>
            <path id="music-solid" d="M56.73.668A3.645,3.645,0,0,1,58.2,3.588V41.782c0,5.025-4.887,9.093-10.912,9.093S36.371,46.8,36.371,41.782s4.887-9.093,10.912-9.093a12.674,12.674,0,0,1,3.638.523V16.661l-29.1,8.729V49.056c0,5.025-4.887,9.093-10.912,9.093S0,54.079,0,49.056s4.887-9.093,10.912-9.093a12.673,12.673,0,0,1,3.638.523V14.5a3.656,3.656,0,0,1,2.592-3.489L53.514.1A3.619,3.619,0,0,1,56.73.667Z" transform="translate(40.026 31.953)" fill="#fff"/>
          </g>
        </g>
      </g>
    </g>
  </g>
</svg>
